<?xml version="1.0" encoding="UTF-8"?>
<svg version="1.1" xmlns="http://www.w3.org/2000/svg" width="48" height="48">
<path d="M0 0 C1.50433594 0.01353516 1.50433594 0.01353516 3.0390625 0.02734375 C3.80992188 0.03894531 4.58078125 0.05054688 5.375 0.0625 C5.705 1.0525 6.035 2.0425 6.375 3.0625 C7.365 3.0625 8.355 3.0625 9.375 3.0625 C11.18694472 6.91288254 11.88477671 9.81436075 11.375 14.0625 C10.02792572 17.38157992 8.41351243 20.23885221 5.5625 22.5 C0.9784794 23.67874815 -2.56744564 23.50148483 -6.9375 21.6875 C-9.625 20.0625 -9.625 20.0625 -11.625 18.0625 C-12.31660129 12.61815034 -12.56723965 7.6643074 -9.75 2.875 C-6.34925353 -0.02563669 -4.40222444 -0.05118866 0 0 Z " fill="#EE9C1F" transform="translate(35.625,-0.0625)"/>
<path d="M0 0 C2.875 1.875 2.875 1.875 5 5 C5.69763446 8.79760693 5.70099962 12.20291875 5 16 C3.125 18.6875 3.125 18.6875 0 20 C-3.36333245 20.29268695 -6.63484696 20.235234 -10 20 C-10 19.34 -10 18.68 -10 18 C-10.99 17.67 -11.98 17.34 -13 17 C-15.35690765 12.65832802 -15.66271411 8.57722154 -14.4375 3.8125 C-10.79556218 -0.77950855 -5.34123241 -1.85781997 0 0 Z " fill="#EE9B1F" transform="translate(16,7)"/>
<path d="M0 0 C2.76253941 0.47227236 4.26120367 1.26651038 6.125 3.36328125 C7.52949969 7.57678031 7.80328466 11.52222288 6.25 15.73828125 C5.125 17.36328125 5.125 17.36328125 3.125 18.36328125 C1.31772528 18.53580669 -0.49758683 18.62998663 -2.3125 18.67578125 C-3.76462891 18.73185547 -3.76462891 18.73185547 -5.24609375 18.7890625 C-7.875 18.36328125 -7.875 18.36328125 -9.6953125 16.62109375 C-11.65042012 12.87919903 -11.50422616 9.47520104 -10.875 5.36328125 C-8.38987325 0.06888079 -5.42717678 -0.31241972 0 0 Z " fill="#EE9C1F" transform="translate(27.875,29.63671875)"/>
</svg>
